<?xml version="1.0" encoding="utf-8"?>
<!-- Generator: Adobe Illustrator 18.1.1, SVG Export Plug-In . SVG Version: 6.00 Build 0)  -->
<!DOCTYPE svg PUBLIC "-//W3C//DTD SVG 1.1//EN" "http://www.w3.org/Graphics/SVG/1.1/DTD/svg11.dtd">
<svg version="1.1" xmlns="http://www.w3.org/2000/svg" xmlns:xlink="http://www.w3.org/1999/xlink" x="0px" y="0px"
	 viewBox="0 0 16 16" enable-background="new 0 0 16 16" xml:space="preserve">
<g id="Layer_1" display="none">
	<path display="inline" fill="#FFFFFF" stroke="#000000" stroke-miterlimit="10" d="M15.5,14.5c0,0.5-0.4,1-1,1H1.5
		c-0.5,0-1-0.4-1-1V1.5c0-0.5,0.4-1,1-1h13.1c0.5,0,1,0.4,1,1V14.5z"/>
	
		<line display="inline" fill="none" stroke="#000000" stroke-width="2" stroke-linecap="round" stroke-miterlimit="10" x1="3.2" y1="12.8" x2="12.8" y2="3.2"/>
	
		<line display="inline" fill="none" stroke="#000000" stroke-width="2" stroke-linecap="round" stroke-miterlimit="10" x1="3.2" y1="3.2" x2="12.8" y2="12.8"/>
</g>
<g id="Layer_1_copy_4" display="none">
	<path display="inline" fill="#CCCCCC" stroke="#000000" stroke-miterlimit="10" d="M15.5,14.5c0,0.5-0.4,1-1,1H1.5
		c-0.5,0-1-0.4-1-1V1.5c0-0.5,0.4-1,1-1h13.1c0.5,0,1,0.4,1,1V14.5z"/>
	
		<line display="inline" fill="none" stroke="#000000" stroke-width="2" stroke-linecap="round" stroke-miterlimit="10" x1="3.2" y1="12.8" x2="12.8" y2="3.2"/>
	
		<line display="inline" fill="none" stroke="#000000" stroke-width="2" stroke-linecap="round" stroke-miterlimit="10" x1="3.2" y1="3.2" x2="12.8" y2="12.8"/>
</g>
<g id="Layer_1_copy_5">
	<path fill="#F2F2F2" stroke="#000000" stroke-miterlimit="10" d="M15.5,14.5c0,0.5-0.4,1-1,1H1.5c-0.5,0-1-0.4-1-1V1.5
		c0-0.5,0.4-1,1-1h13.1c0.5,0,1,0.4,1,1V14.5z"/>
	<line stroke="#000000" stroke-width="2" stroke-linecap="round" stroke-miterlimit="10" x1="3.2" y1="12.8" x2="12.8" y2="3.2"/>
	
		<line fill="none" stroke="#000000" stroke-width="2" stroke-linecap="round" stroke-miterlimit="10" x1="3.2" y1="3.2" x2="12.8" y2="12.8"/>
</g>
<g id="Layer_1_copy" display="none">
	
		<polygon display="inline" fill="#666666" stroke="#000000" stroke-linecap="round" stroke-linejoin="round" stroke-miterlimit="10" points="
		12,8 5.5,14.5 5.5,1.5 	"/>
</g>
<g id="Layer_1_copy_3" display="none">
	
		<polygon display="inline" fill="#666666" stroke="#000000" stroke-linecap="round" stroke-linejoin="round" stroke-miterlimit="10" points="
		12,8 5.5,14.5 5.5,1.5 	"/>
	<polyline display="inline" fill="none" stroke="#B3B3B3" stroke-linecap="round" stroke-miterlimit="10" points="8.8,6.4 6.5,4 
		6.5,12 	"/>
</g>
<g id="Layer_1_copy_6" display="none">
	
		<polygon display="inline" fill="#666666" stroke="#000000" stroke-linecap="round" stroke-linejoin="round" stroke-miterlimit="10" points="
		7.8,12 1.3,5.5 14.2,5.5 	"/>
</g>
<g id="Layer_1_copy_7" display="none">
	
		<polygon display="inline" fill="#666666" stroke="#000000" stroke-linecap="round" stroke-linejoin="round" stroke-miterlimit="10" points="
		7.8,12 1.3,5.5 14.2,5.5 	"/>
	<polyline display="inline" fill="none" stroke="#B3B3B3" stroke-linecap="round" stroke-miterlimit="10" points="11,6.5 3.6,6.5 
		5.7,8.3 	"/>
</g>
<g id="Layer_1_copy_2" display="none">
	
		<polygon display="inline" fill="#666666" stroke="#000000" stroke-linecap="round" stroke-linejoin="round" stroke-miterlimit="10" points="
		4.8,12.5 2.8,6.3 8,2.5 13.2,6.3 11.2,12.5 	"/>
</g>
<g id="Layer_1_copy_8" display="none">
	
		<polygon display="inline" fill="#666666" stroke="#000000" stroke-linecap="round" stroke-linejoin="round" stroke-miterlimit="10" points="
		4.8,12.5 2.8,6.3 8,2.5 13.2,6.3 11.2,12.5 	"/>
	
		<polyline display="inline" fill="none" stroke="#B3B3B3" stroke-linecap="round" stroke-linejoin="round" stroke-miterlimit="10" points="
		8,4.4 4.6,6.8 4.8,8 	"/>
</g>
</svg>
